<?xml version="1.0" encoding="utf-8"?>
<!-- Generator: Adobe Illustrator 23.0.1, SVG Export Plug-In . SVG Version: 6.00 Build 0)  -->
<svg version="1.1" id="Calque_1" xmlns="http://www.w3.org/2000/svg" xmlns:xlink="http://www.w3.org/1999/xlink" x="0px" y="0px"
	 viewBox="0 0 500 500" style="enable-background:new 0 0 500 500;" xml:space="preserve">
<style type="text/css">
	.st0{fill:#3E5DAB;}
	.st1{fill:#FDB843;}
</style>
<g>
	<path class="st0" d="M297.03,381.23c-13.36,4.14-27.4,6.22-41.68,6.22c-0.23,0-0.23,0-0.46,0c-4.38,0-8.98-0.23-13.36-0.69
		l-3.22-0.23c-2.76-0.46-5.53-0.69-8.29-1.38c-0.69-0.23-1.38-0.23-2.07-0.46l-4.38-0.69c-3.68-0.92-7.37-1.84-11.51-2.99
		c-0.23,0-0.23,0-0.46-0.23c-0.69-0.23-1.61-0.46-2.3-0.69c-1.61-0.46-3.45-0.92-5.3-1.84c-1.15-0.46-2.3-0.92-3.45-1.38
		c-0.92-0.46-1.84-0.69-2.76-1.15c-4.14-1.84-8.29-3.68-12.2-5.76c0,0-0.23,0-0.23-0.23c-2.76-1.38-5.76-2.99-8.52-5.07
		c0-0.23-0.23-0.23-0.23-0.23l-2.3-1.38c-0.69-0.46-1.38-0.92-2.3-1.61c-3.45-2.3-6.91-4.84-10.13-7.6
		c-0.69-0.46-1.61-1.38-2.53-2.07c-0.23-0.23-0.23-0.23-0.46-0.46l-8.52-8.06l-2.3-2.3l-5.99-6.68c-3.45-4.38-6.68-8.52-9.44-13.13
		c-0.69-0.69-1.15-1.38-1.38-2.3c-0.69-0.69-1.15-1.61-1.38-2.53l0.46-0.46l-11.05-20.26l-0.23-0.69
		c-3.22-7.83-5.76-16.12-7.6-24.87l-0.23-0.69c-1.38-7.14-2.3-14.51-2.53-22.11c-0.46-4.14-0.46-8.29,0-12.2l0.23-5.53
		c0-1.38,0.23-2.76,0.23-3.92l0.23-1.38v-0.23c0-1.84,0.23-2.99,0.69-4.61l0.46-3.22c0.23-1.84,0.46-3.45,0.92-5.3
		c0.46-2.53,1.15-5.07,1.84-7.6c0.46-2.07,0.92-3.91,1.61-5.99c0-0.23,0-0.23,0.23-0.46c0.46-1.84,1.15-3.68,1.84-5.53l1.15-3.22
		c0.46-1.61,1.15-3.45,1.84-4.84c0.92-2.07,1.84-4.14,2.99-6.45l3.22-6.22c2.3-4.14,4.83-8.29,7.37-12.21
		c2.76-3.91,5.53-7.6,8.52-11.28c2.99-3.68,6.22-7.14,9.44-10.36s6.68-6.45,10.36-9.44c0.69-0.69,1.38-1.38,2.07-1.84
		c0.69-0.46,1.15-0.92,1.84-1.38c1.38-0.92,2.76-1.84,4.14-2.76c0.69-0.69,1.61-1.15,2.3-1.84c0.69-0.69,1.61-1.15,2.3-1.61
		c0.92-0.92,2.07-1.38,2.99-2.07c2.53-1.61,4.84-2.99,7.83-4.38c1.15-0.69,2.3-1.38,3.68-2.07c1.38-0.69,2.76-1.38,4.14-2.07
		c1.61-0.92,3.22-1.38,4.84-2.3c1.15-0.46,2.53-0.92,3.91-1.38c5.99-2.3,12.21-4.38,18.42-5.76c0.23,0,0.23,0,0.23,0
		c2.3-0.69,4.84-1.38,7.14-1.61h0.23v-70c-4.14,0.46-8.52,1.38-13.36,2.07c-2.76,0.46-5.53,1.15-8.52,1.84
		c-1.61,0.23-2.99,0.69-4.6,1.15c-2.07,0.46-4.38,0.92-6.68,1.61c-1.15,0.23-2.3,0.69-3.22,1.15c-2.53,0.69-5.07,1.38-7.37,2.3
		c-2.99,1.15-5.76,2.07-8.06,3.22c-1.84,0.69-3.68,1.38-5.53,2.07c-2.99,1.38-5.99,2.53-8.98,4.14c-1.61,0.69-3.22,1.61-4.61,2.3
		c-3.22,1.61-6.45,3.22-9.44,5.07c-2.3,1.38-4.61,2.76-6.68,4.14c-6.68,4.15-13.36,8.75-20.03,14.05
		c-5.53,4.38-11.05,9.21-15.66,13.82c-0.92,0.92-1.84,1.61-2.53,2.53c-2.53,2.53-4.83,5.07-7.14,7.6c-2.3,2.3-4.38,4.61-5.99,6.68
		c-3.91,4.61-7.37,9.21-10.36,13.59c-5.07,6.68-9.21,13.36-13.12,20.73c-0.23,0.46-0.69,0.92-0.69,1.38
		c-1.61,2.3-2.99,4.83-3.91,7.37c-0.69,1.15-1.38,2.76-2.53,5.07c-2.3,4.61-4.15,9.44-5.76,14.28c-0.23,0.69-0.46,1.38-0.69,2.07
		c-3.22,8.06-5.07,15.43-5.99,19.11c-2.07,6.91-3.45,13.82-4.38,20.73c0,0.46-0.23,1.15-0.23,1.61c-0.46,3.22-0.92,6.68-1.38,9.9
		v0.69c-0.46,3.45-0.69,6.91-0.92,10.36v0.69l-0.46,5.3l0.23,0.69v5.07c0,3.45,0,6.91,0.23,10.36v0.23c0,0.69,0,1.38,0.23,2.07
		c0.23,4.84,0.69,9.67,1.15,14.28c0,1.84,0.46,3.69,0.69,5.53c0.46,2.99,0.92,5.76,1.61,8.52c0,0.69,0.23,1.61,0.46,2.3
		c0,0.23,0,0.46,0.23,0.69c0.46,3.22,1.15,6.45,2.07,9.67c0.69,2.99,1.38,5.76,2.3,8.52c2.99,9.9,6.68,19.34,10.82,28.55
		c0.92,2.07,2.07,4.14,2.99,5.99c0.69,1.38,1.38,2.76,2.3,4.14c5.07,9.9,11.05,19.57,18.19,29.02c1.84,2.3,3.69,4.83,5.53,7.14
		c0.69,0.92,1.38,1.84,2.3,2.76l5.07,5.3l6.91,7.6h0.23c4.38,4.61,8.29,8.29,11.97,11.05c2.76,2.53,5.76,5.07,8.75,7.37
		c1.61,1.38,3.22,2.53,4.83,3.45c2.99,2.3,5.99,4.38,8.98,6.22c5.07,3.45,9.9,6.22,15.2,9.21c8.06,4.38,15.66,7.83,21.88,10.13
		c5.99,2.76,12.44,4.84,18.19,6.68c6.45,1.84,12.67,3.45,19.11,4.84l4.38,0.69c2.07,0.46,4.15,0.69,6.45,1.15
		c2.99,0.46,5.76,0.92,8.75,1.15c0.92,0,1.61,0.23,2.53,0.23l1.15,0.23c6.68,0.69,13.59,0.92,20.5,0.92
		c56.42,0,109.84-21.65,150.37-61.02l-47.9-49.74C340.32,362.57,319.6,374.78,297.03,381.23z"/>
	<path class="st1" d="M297.03,26.14v71.16c49.97,14.74,88.89,55.5,101.09,106.39H297.03v69.08h174.32v-34.54
		C471.35,133.22,396.28,45.48,297.03,26.14z"/>
</g>
</svg>
