<?xml version="1.0" encoding="utf-8"?>
<!-- Generator: Adobe Illustrator 23.0.1, SVG Export Plug-In . SVG Version: 6.00 Build 0)  -->
<svg version="1.1" id="Layer_1" xmlns="http://www.w3.org/2000/svg" xmlns:xlink="http://www.w3.org/1999/xlink" x="0px" y="0px"
	 viewBox="0 0 512 512" style="enable-background:new 0 0 512 512;" xml:space="preserve">
<style type="text/css">
	.st0{fill:#FFFFFF;}
</style>
<path class="st0" d="M416.6,161c0-88.7-71.7-160.7-160.4-161c-194.6,4.9-221.1,275.5-33,318.8v55.8h-54.8c-8.4,0-15.2,6.8-15.2,15.2
	V424c0,8.4,6.8,15.2,15.2,15.2h54.8v57.5c0,8.4,6.8,15.2,15.2,15.2h34.3c8.4,0,15.2-6.8,15.2-15.2v-57.5h54.8
	c8.4,0,15.2-6.8,15.2-15.2v-34.3c0-8.4-6.8-15.2-15.2-15.2H288v-55.8C361.4,303.8,416.6,238.9,416.6,161L416.6,161z M255.6,256.1
	c-52.5,0-95.1-42.6-95.1-95.1c5-126.2,185.2-126.1,190.2,0C350.7,213.6,308.1,256.1,255.6,256.1z"/>
</svg>
